<svg version="1.1" id="Layer_1" xmlns="http://www.w3.org/2000/svg" xmlns:xlink="http://www.w3.org/1999/xlink" x="0px" y="0px" viewBox="0 0 500 500" style="width: 188px;" xml:space="preserve" data-imageid="adventure-1-82" imageName="Adventure 1" class="illustrations_image">
<style type="text/css">
	.st0_adventure-1-82{fill:#34B5E2;}
	.st1_adventure-1-82{fill:url(#SVGID_1_);}
	.st2_adventure-1-82{opacity:0.52;fill:url(#SVGID_00000078746710669486008050000012406194302896885392_);enable-background:new    ;}
	.st3_adventure-1-82{opacity:0.52;fill:url(#SVGID_00000076593196532032412730000016781047632469831834_);enable-background:new    ;}
	.st4_adventure-1-82{fill:#218782;}
	.st5_adventure-1-82{fill:#006837;}
	.st6_adventure-1-82{fill:#68E1FD;}
	.st7_adventure-1-82{fill:#FBB03B;}
	.st8_adventure-1-82{fill:#603912;}
	.st9_adventure-1-82{opacity:0.29;fill:#0F2741;enable-background:new    ;}
	.st10_adventure-1-82{opacity:0.61;fill:#0F2741;enable-background:new    ;}
	.st11_adventure-1-82{fill:#FFB288;}
	.st12_adventure-1-82{fill:#0F2741;}
	.st13_adventure-1-82{fill:#B3B3B3;}
	.st14_adventure-1-82{fill:#F15A24;}
	.st15_adventure-1-82{opacity:0.5;fill:#B3B3B3;enable-background:new    ;}
</style>
<path id="Base_adventure-1-82" class="st0_adventure-1-82" d="M33.9,317.2c35.5,20,121.2,70.8,155.7,91.2c9.1,5.4,20.4,5.4,29.5,0.1l245-143.2&#10;&#9;c4.7-2.8,6.3-8.8,3.5-13.5c-0.9-1.5-2.1-2.7-3.6-3.6L307.4,159c-7.6-4.3-17-4.3-24.6,0L33.9,300c-4.8,2.7-6.4,8.7-3.8,13.5&#10;&#9;C31,315,32.3,316.3,33.9,317.2z"/>
<g id="Shadow_adventure-1-82">
	
		<linearGradient id="SVGID_1_-adventure-1-82" gradientUnits="userSpaceOnUse" x1="162.0812" y1="132.6888" x2="342.0212" y2="312.6187" gradientTransform="matrix(1 0 0 -1 0 502)">
		<stop offset="0" style="stop-color:#0F2741;stop-opacity:0"/>
		<stop offset="0.99" style="stop-color:#006837"/>
	</linearGradient>
	<polyline class="st1_adventure-1-82" points="199.1,295.5 99.4,350.7 158.6,386.2 315.6,297 &#9;"/>
	
		<linearGradient id="SVGID_00000138575355822342836600000006923694382306551734_-adventure-1-82" gradientUnits="userSpaceOnUse" x1="376.5561" y1="215.6739" x2="435.5161" y2="274.6439" gradientTransform="matrix(1 0 0 -1 0 502)">
		<stop offset="0" style="stop-color:#0F2741;stop-opacity:0"/>
		<stop offset="1" style="stop-color:#F15A24"/>
	</linearGradient>
	<path style="opacity:0.52;fill:url(#SVGID_00000138575355822342836600000006923694382306551734_);enable-background:new    ;" d="&#10;&#9;&#9;M419.3,263.9c0.1-0.5,0.3-1,0.4-1.4c-1.3-2-2.8-3.9-4.6-5.6c-0.2-0.2-0.4-0.5-0.4-0.8l-3.4-1.6l-52,28.1l9.8,10.8l50.2-28.9&#10;&#9;&#9;C419.2,264.3,419.2,264.1,419.3,263.9z"/>
	
		<linearGradient id="SVGID_00000056404222384664569740000018296688768548988571_-adventure-1-82" gradientUnits="userSpaceOnUse" x1="100.2386" y1="198.7414" x2="159.1986" y2="257.7114" gradientTransform="matrix(1 0 0 -1 0 502)">
		<stop offset="0" style="stop-color:#0F2741;stop-opacity:0"/>
		<stop offset="1" style="stop-color:#F15A24"/>
	</linearGradient>
	<path style="opacity:0.52;fill:url(#SVGID_00000056404222384664569740000018296688768548988571_);enable-background:new    ;" d="&#10;&#9;&#9;M143,280.8c0.1-0.5,0.3-1,0.4-1.4c-1.3-2-2.9-3.9-4.6-5.6c-0.2-0.2-0.4-0.5-0.4-0.8l-3.5-1.6l-52,28.1l9.8,10.8l50.2-28.9&#10;&#9;&#9;C142.9,281.2,142.9,281,143,280.8z"/>
	<path class="st4_adventure-1-82" d="M363.5,247.5c0,0,1.8,12.7,0,16.3s-81.3,58.9-118.2,68.4s-69,4.9-74.1,0.2s8.1-30.7,31.4-28.3"/>
</g>
<g id="Grass_adventure-1-82">
	<path class="st5_adventure-1-82" d="M409.2,256.5c1.1,1.1,2.7,1.6,4.2,1.3c3.1-37.7-30.6-39.6-30.6-39.6C409.3,227.2,409.8,249.2,409.2,256.5z"/>
	<path class="st5_adventure-1-82" d="M414.6,263.8c-2.2-0.7,0-51.8,0-51.8l4.5,51.8C419.1,263.8,418.7,265,414.6,263.8z"/>
	<path class="st5_adventure-1-82" d="M417.6,262.2c0.3-1.3-2.9-33.6,18.3-41.4c-9.4,11.8-14.6,26.3-14.8,41.4"/>
	<path class="st5_adventure-1-82" d="M132.9,273.4c1.1,1.1,2.7,1.6,4.2,1.3c3.1-37.7-30.6-39.6-30.6-39.6C133,244.2,133.5,266.1,132.9,273.4z"/>
	<path class="st5_adventure-1-82" d="M138.3,280.7c-2.2-0.7,0-51.8,0-51.8l4.5,51.8C142.8,280.7,142.3,282,138.3,280.7z"/>
	<path class="st5_adventure-1-82" d="M141.3,279.1c0.3-1.3-2.9-33.6,18.3-41.4c-9.4,11.8-14.6,26.3-14.8,41.4"/>
</g>
<g id="Boat_adventure-1-82">
	<path class="st6_adventure-1-82 targetColor" d="M158.6,313.6c0,0-9.9-13.9,14.2-37s127.8-80.5,152-83.9s40.4,2.2,45.3,14.9" style="fill: rgb(104, 225, 253);"/>
	<path class="st6_adventure-1-82 targetColor" d="M158.6,313.6c0,0,19.9,16.2,49.5,12.3s58.9-11.6,86-28.9s69.4-49.5,69.4-49.5c5.2-9.6,8-20.4,8.1-31.3&#10;&#9;&#9;c0.2-18.4-16.5-23.5-31.9-20.9" style="fill: rgb(104, 225, 253);"/>
	<path class="st7_adventure-1-82" d="M185.5,290.7c0,0,90.3-54,119.7-60.6s25.7,20.5,25.7,20.5s-77.9,49.9-112.4,55.4S185.5,290.7,185.5,290.7z"/>
	<polyline class="st8_adventure-1-82" points="198.4,264.9 198.4,268 248.9,297 266.5,288.6 267.4,286.4 &#9;"/>
	<polygon class="st4_adventure-1-82" points="198.4,264.9 250,294.4 267.4,286.4 213.9,254.9 &#9;"/>
	<polyline class="st8_adventure-1-82" points="259.6,231.2 259.6,234.2 310,263.3 327.6,254.9 328.6,252.6 &#9;"/>
	<polygon class="st4_adventure-1-82" points="259.6,231.2 311.2,260.7 328.6,252.6 275.1,221.2 &#9;"/>
	<path class="st6_adventure-1-82 targetColor" d="M300.4,206.6l48.8,27.9l20.7-19.6c0,0,2.9-12.1-10.9-19.3S312.8,195.6,300.4,206.6z" style="fill: rgb(104, 225, 253);"/>
	<polygon class="st6_adventure-1-82 targetColor" points="300.4,206.6 300.4,232.5 330.9,250.6 349.2,234.6 &#9;" style="fill: rgb(104, 225, 253);"/>
	<path class="st9_adventure-1-82" d="M300.4,206.6l48.8,27.9l20.7-19.6c0,0,2.9-12.1-10.9-19.3S312.8,195.6,300.4,206.6z"/>
	<polygon class="st10_adventure-1-82" points="300.4,206.6 300.4,232.5 330.9,250.6 349.2,234.6 &#9;"/>
	<path class="st6_adventure-1-82 targetColor" d="M160.9,311.5c0,0-7.7-10.5,12.3-31.5l45.4,26C218.6,306,171.2,316.5,160.9,311.5z" style="fill: rgb(104, 225, 253);"/>
	<path class="st9_adventure-1-82" d="M160.9,311.5c0,0-7.7-10.5,12.3-31.5l45.4,26C218.6,306,171.2,316.5,160.9,311.5z"/>
</g>
<g id="Character_adventure-1-82">
	<path class="st11_adventure-1-82" d="M242.5,262.7v-12.9l9.2,1.1l-0.6,14.6C251.1,265.5,242.5,269.7,242.5,262.7z"/>
	<path class="st11_adventure-1-82" d="M278.8,233.4c0,0,3,15.2,3.7,15.7s8.3,1.4,7.9-0.5s-1.5-17.2-1.5-17.2"/>
	<path class="st12_adventure-1-82" d="M300.3,252.5c-2.7-1-8.5-4.9-9.9-7.5c-4,1.5-6.1,2.2-9.8,0.7c-0.1,3-0.4,7.4,1.9,8.2&#10;&#9;&#9;c3.7,1.4,20.3,13.9,22,6.6C305.1,256.9,304.3,254,300.3,252.5z"/>
	<path class="st12_adventure-1-82" d="M274.4,150.5c0,0,18.1,71.5,15.8,88.9c-0.3,2.1-10.7,2.8-18.4,0c0,0-14.4-77.4-13.3-86.4"/>
	<path class="st12_adventure-1-82" d="M251.8,156c0,0-5.1,56.7-7.5,63.8c-2,5.9-5.6,28.6-6.8,36.5c4.6,2.9,10.4,3.8,15.2,1.9&#10;&#9;&#9;c3-10.6,10.1-35.8,11.8-41.7c2.3-7.5,6.2-47.4,6.2-47.4L251.8,156z"/>
	<path class="st13_adventure-1-82" d="M277.1,159c0.7-12.6,1.5-37.7-3-38.8c-6-1.5-22.9,6-26.6,11c-2.6,3.6,1,21.6,3.4,31.9&#10;&#9;&#9;C259.3,165.3,270,164,277.1,159z"/>
	<path class="st14_adventure-1-82" d="M267.5,115.3c2.2-1.7,3.6-4,4.2-6.7c0.8-4.4-3.8-6.5-6.2-6.5c0,0,1.4,1,1.6,1.6c0,0-1.8-2.5-6.7-1.6&#10;&#9;&#9;s-0.5,1.8-0.5,1.8s-4.9-0.8-7.6,0s-4.1,2-3.7,2.5s1.5,0.1,1.9,0.4s-2.5,2-2.7,3.3s2.1,2.1,1.9,2.4s0.8,1.6,0.7,2s1,8,8.6,7.6"/>
	<path class="st11_adventure-1-82" d="M268.4,110.8c-0.1-0.1-0.1-0.1-0.2-0.1c-0.1,0-0.2,0-0.2,0c-1.4,0.3-2.9,0.5-4.3,0.5&#10;&#9;&#9;c-1.4-0.1-2.8-0.4-4.3-0.5c-0.6,0-1.2,0.8-1.5,2.2c-0.2,2.3-0.4,4.6-0.4,6.9c0.4,2.6,2.3,4.7,4.8,5.4c2.5,0.6,4.2-0.7,5.1-2.8&#10;&#9;&#9;c1.1-2.8,1.7-5.8,1.6-8.9l0.1-1.5C269,111.5,268.7,111,268.4,110.8z"/>
	<path class="st14_adventure-1-82" d="M267.7,109.5c0,0-1.6,12-9.8,12.5c-4,0.2-5.6-9.8-5.6-9.8s6.4-6.1,10.6-6.1S267.7,109.5,267.7,109.5z"/>
	<path class="st11_adventure-1-82" d="M265.4,117.4c-0.1-0.6,1.3-2.9-2.1-1.7s-2.1,4.4,0,5"/>
	<path class="st13_adventure-1-82" d="M248.8,129.9c0,0-5.9,4.3-3.8,14.3c2.1,10.4,19.9,12.8,27,9c0,0-5.5-17.7-6.7-18.3"/>
	<path class="st13_adventure-1-82" d="M271.6,120c0,0,38.7-13.2,40.3-10.9c0,0,3.3,6.4,1.1,10.9c0,0-35.2,17.9-41.5,16.4"/>
	<path class="st12_adventure-1-82" d="M242.6,262.9c0,0-0.5,13.7,1.8,17.6s13,1.9,12.8-1.8s-4.2-8.7-4.6-12.6s-1.6-3.2-1.6-3.2&#10;&#9;&#9;S248.5,268,242.6,262.9z"/>
	<path class="st12_adventure-1-82" d="M273.3,114.1l62-21.2l2.8,21.2l-63.9,6.1C274.2,120.2,269.9,118.1,273.3,114.1z"/>
	<ellipse class="st12_adventure-1-82" cx="336.8" cy="103.7" rx="8.3" ry="10.8"/>
	<path class="st11_adventure-1-82" d="M271.5,123.3c0,0-0.1-2.8,1.4-3.9s2.3,1.6,2.3,1.6l0.7-4.8c0,0,1.5-1.1,4.5,2.5c0,0-1.4,5.2-2.2,6.5&#10;&#9;&#9;s-5.1,4-5.1,4l-2.4-1.8L271.5,123.3z"/>
	<path class="st12_adventure-1-82" d="M248.2,150c0,0,6.5,5.7,15.2,4.5c8.6-1.3,12.2-16.3,12.2-16.3s-2.5,14.4-10.2,17.8s-16.3-1.2-16.3-1.2&#10;&#9;&#9;L248.2,150z"/>
	<path class="st12_adventure-1-82" d="M276.7,133.8l-9.9-5.8c-0.3-0.2-0.7-0.1-0.9,0.2c0,0.1-0.1,0.1-0.1,0.2c-1.2,3.9-5.4,13.6-10.8,9.1&#10;&#9;&#9;c-0.6-0.6-1.6,0.4-0.9,0.9c2.2,1.9,4.4,2.8,6.8,0.7c2.8-2.6,4.9-5.9,6-9.6l9.2,5.4c0.3,0.2,0.7,0,0.9-0.3&#10;&#9;&#9;C277,134.3,276.9,133.9,276.7,133.8z"/>
	<path class="st15_adventure-1-82" d="M287,109.4c0,0,3.3,0.6,3.8,2.6s0.2,5.7-1.9,6.8l4.7-0.4c0,0,3.3-6.6-2.5-10.3L287,109.4z"/>
	<path class="st15_adventure-1-82" d="M329.5,94.9c0.5-0.2,9,1.3,8.6,9.5s-5.7,10.2-5.7,10.2l4.5-0.2c2.9-3.1,4.3-7.3,4-11.5&#10;&#9;&#9;c-0.3-7.5-8.4-9.4-8.4-9.4L329.5,94.9z"/>
	<ellipse class="st0_adventure-1-82" cx="273.5" cy="116.9" rx="1.1" ry="1.6"/>
	<path class="st11_adventure-1-82" d="M313.8,100.2c0,0,0.4-1.7,1.6-2c0.6-0.2,1.2,0.2,1.3,0.8c0,0.1,0,0.1,0,0.2c0,0,0.4-2,1.1-2&#10;&#9;&#9;c0.4,0,0.7,0.3,0.9,0.7c0,0,0.6-1.1,1.3-1.1s1.2,1,1.2,1L313.8,100.2z"/>
	<path class="st12_adventure-1-82" d="M265.3,101.7c0,0,2.9-1,4,1.4s-3.1,9-9,12s-10.6,3.4-11.7,2.2s0.5-4.2,0.5-4.2"/>
	<path class="st12_adventure-1-82" d="M263.3,99.8l3.9,3.8c0,0-2.8,7-9.4,9.5s-7.9,1.9-7.9,1.9l-2.5-6.3"/>
	<path class="st12_adventure-1-82" d="M260.3,98.1c0,0,4.3,0.4,3,3.8s-8.9,10.3-14.5,8.3S255.5,97.6,260.3,98.1z"/>
	<path class="st11_adventure-1-82" d="M261.4,124.6c-1.1-0.4-2.1-1.1-2.9-2c-0.1-0.1-0.2-0.3-0.2-0.4l-0.2-0.2l-1.3-0.2v4.3c0,0,1.6,2.8,6.7,1.7&#10;&#9;&#9;l-0.2-3C262.7,124.9,262,124.8,261.4,124.6z"/>
</g>
</svg>