<svg version="1.1" id="Layer_1" xmlns="http://www.w3.org/2000/svg" xmlns:xlink="http://www.w3.org/1999/xlink" x="0px" y="0px" viewBox="0 0 500 500" style="width: 188px;" xml:space="preserve" data-imageid="adventure-1-30" imageName="Adventure 1" class="illustrations_image">
<style type="text/css">
	.st0_adventure-1-30{fill:#68E1FD;}
	.st1_adventure-1-30{fill:#093F68;}
	.st2_adventure-1-30{fill:#70CC40;}
	.st3_adventure-1-30{fill:#F56132;}
	.st4_adventure-1-30{fill:#FFFFFF;}
	.st5_adventure-1-30{fill:#FFBC0E;}
	.st6_adventure-1-30{fill:#725858;}
	.st7_adventure-1-30{fill:#FFC9B0;}
</style>
<g id="backgrounf_adventure-1-30">
	<rect x="24.9" y="115.8" class="st0_adventure-1-30 targetColor" width="450.3" height="268.4" style="fill: rgb(104, 225, 253);"/>
	<path class="st1_adventure-1-30" d="M475,386.1H24.9c-1,0-1.9-0.9-1.9-1.9l0,0V115.8c0-1,0.9-1.9,1.9-1.9c0,0,0,0,0,0h450.3c1,0,1.9,0.9,1.9,1.9&#10;&#9;&#9;l0,0v268.4C477,385.3,476.1,386.1,475,386.1z M26.8,382.3h446.5V117.7H26.8V382.3z"/>
	<path class="st2_adventure-1-30" d="M475,326.6v57.6h-96c3.6-5.8,10.4-9,17.2-8.1c1.3,0.3,2.6,0.3,3.8-0.1c1.1-0.6,2-1.5,2.7-2.5&#10;&#9;&#9;c6-7.3,15.7-10.4,24.9-8c1.9-7.7,4.8-16.5,12.1-19.3c2.3-0.9,4.7-1,6.9-2c2.5-1.1,4.5-3.3,6.4-5.3C459,332.7,466.8,326.8,475,326.6&#10;&#9;&#9;z"/>
	<path class="st1_adventure-1-30" d="M475,386.1h-96c-1,0-1.9-0.9-1.9-1.9c0-0.4,0.1-0.7,0.3-1c4-6.5,11.4-10,19-9l0.5,0.1c0.8,0.2,1.6,0.2,2.4,0&#10;&#9;&#9;c0.7-0.4,1.3-0.9,1.7-1.6l0.2-0.3c6.1-7.3,15.7-10.7,25-9c2.2-8.3,5.4-16,12.8-18.8c1.1-0.4,2.3-0.7,3.4-1c1.2-0.2,2.3-0.6,3.4-1&#10;&#9;&#9;c2.1-1.1,4-2.7,5.5-4.5l0.4-0.4c8.2-8.5,15.9-12.8,23.4-13c0.5,0,1,0.2,1.4,0.5c0.4,0.4,0.6,0.9,0.6,1.4v57.6&#10;&#9;&#9;c0,1.1-0.9,1.9-1.9,1.9C475.1,386.1,475.1,386.1,475,386.1L475,386.1z M383,382.3h90.3v-53.7c-5.9,0.9-12.2,4.8-18.9,11.7l-0.4,0.4&#10;&#9;&#9;c-1.9,2-3.9,4.1-6.6,5.3c-1.3,0.6-2.7,1-4.1,1.2c-1,0.2-2,0.5-2.9,0.8c-6.2,2.3-8.9,10-10.9,18c-0.3,1-1.3,1.6-2.3,1.4h-0.1&#10;&#9;&#9;c-8.4-2.2-17.3,0.6-22.9,7.3L404,375c-0.8,1.2-1.9,2.1-3.2,2.8c-1.4,0.5-2.9,0.6-4.4,0.3H396C391.3,377.4,386.5,379,383,382.3z"/>
	<path class="st1_adventure-1-30" d="M141.4,189.9c-0.3,0.8-1,1.3-1.8,1.3c-0.1-0.1-74.1,0-111.8,0h-1c-1,0-1.9-0.9-1.9-1.9c0-1,0.9-1.9,1.9-1.9h1&#10;&#9;&#9;c14.1,0,33.3,0,51.8-0.1c18.9,0,37.1,0,48.3,0c-6.5-2.2-13.7-4.6-15.6-5.3c-0.9-0.3-1.4-1.2-1.2-2.1c0.4-3.6-0.4-7.2-2.3-10.3&#10;&#9;&#9;c-3.2-5.2-5.8-5.9-10.4-5.8c-2.4,0.1-11.8,1.9-13.3,3.5c-0.1,1-0.9,1.8-1.9,1.9c-0.9,0-1.7-0.7-1.8-1.6c-0.1-0.9-0.3-1.8-0.4-2.7&#10;&#9;&#9;c-0.3-3.2-1-6.3-2-9.3c-2.8-7-8.8-9.1-13.1-8.7c-6.3,0.6-12.2,3.6-16.4,8.4c-0.7,0.8-1.9,0.9-2.7,0.2c0,0,0,0,0,0l-0.1-0.1&#10;&#9;&#9;c-4.6-4.3-8.9-5.7-13.1-4.2c-2.9,1-5.1,3.5-5.8,6.4c0,0.1-0.1,0.2-0.1,0.4c-0.2,1-1.2,1.7-2.2,1.5c-0.9-0.2-1.6-1-1.5-1.9&#10;&#9;&#9;c0-0.1,0-0.2,0-0.4c0.4-2,1.2-3.8,2.5-5.4l0.4-0.5c1.4-1.7,3.3-3,5.4-3.7c5.1-1.8,10.3-0.6,15.5,3.8c4.8-4.7,11-7.6,17.7-8.3&#10;&#9;&#9;c7.4-0.6,14.1,3.7,17,11.1c1.1,2.9,1.8,6,2.1,9.1c4.8-2.4,13.6-3.2,13.7-3.3c5.6-0.2,9.7,0.9,13.8,7.6c2.1,3.4,3.1,7.3,3,11.3&#10;&#9;&#9;c6,2.1,24.9,8.4,25.1,8.5C141.1,187.9,141.6,188.9,141.4,189.9z"/>
</g>
<g id="mountain_adventure-1-30">
	<polygon class="st3_adventure-1-30" points="295.3,384.5 72.2,384.5 114.7,318.3 146.4,269 183.8,210.9 214.1,258.2 &#9;"/>
	<path class="st1_adventure-1-30" d="M295.3,386.1H72.2c-0.9,0-1.5-0.7-1.6-1.6c0-0.3,0.1-0.6,0.2-0.8l111.6-173.5c0.6-0.7,1.6-0.9,2.3-0.3&#10;&#9;&#9;c0.1,0.1,0.2,0.2,0.3,0.3l111.6,173.6c0.5,0.7,0.3,1.6-0.4,2.1c0,0-0.1,0-0.1,0.1C295.9,386,295.6,386.1,295.3,386.1L295.3,386.1z&#10;&#9;&#9; M75,383h217.4L183.8,213.8L75,383z"/>
	<polygon class="st3_adventure-1-30" points="157.4,384.5 24.5,384.5 24.5,326.1 46.2,292.3 72.2,252 99.1,293.9 114.7,318.3 &#9;"/>
	<path class="st1_adventure-1-30" d="M157.4,386.1H24.5c-0.8,0-1.5-0.7-1.5-1.6l0,0v-58.4c0-0.3,0.1-0.6,0.2-0.8l47.7-74.1c0.5-0.7,1.5-0.9,2.2-0.4&#10;&#9;&#9;c0,0,0,0,0.1,0c0.1,0.1,0.2,0.2,0.3,0.3l85.2,132.5c0.5,0.7,0.3,1.6-0.4,2.1c0,0-0.1,0-0.1,0.1C158,386,157.7,386.1,157.4,386.1&#10;&#9;&#9;L157.4,386.1z M26.1,383h128.5L72.2,254.9l-46.1,71.7L26.1,383z"/>
	<path class="st4_adventure-1-30" d="M214.1,258.2c-4,0.4-8-0.2-11.6-1.8c-2.2-1-4.5-2.5-7-2.1c-4.2,0.6-6.4,6.1-10.6,7c-6.7,1.5-10.4-8-17-7.1&#10;&#9;&#9;c-6.9,0.9-12,11.5-19.1,14.1c-0.8,0.3-1.6,0.5-2.5,0.7l37.4-58L214.1,258.2z"/>
	<path class="st1_adventure-1-30" d="M146.4,270.6c-0.9,0-1.6-0.7-1.6-1.6l0,0c0-0.3,0.1-0.6,0.2-0.8l37.4-58.1c0.6-0.7,1.6-0.8,2.3-0.3&#10;&#9;&#9;c0.1,0.1,0.2,0.2,0.3,0.3l30.4,47.3c0.5,0.7,0.3,1.6-0.4,2.1c0,0-0.1,0-0.1,0.1c-0.2,0.2-0.4,0.2-0.7,0.2&#10;&#9;&#9;c-4.2,0.4-8.5-0.2-12.4-1.9l-1.2-0.6c-1.7-0.8-3.4-1.6-4.9-1.4c-1.6,0.2-3.1,1.6-4.6,3.1c-1.6,1.6-3.4,3.4-5.9,3.9&#10;&#9;&#9;c-4.1,0.9-7.2-1.6-10-3.8c-2.3-1.9-4.5-3.6-7.1-3.3c-3.1,0.4-6,3.4-9.1,6.5s-6,6.2-9.7,7.5c-0.8,0.2-1.6,0.5-2.6,0.7L146.4,270.6z&#10;&#9;&#9; M183.8,213.8l-33.5,52c2.4-1.7,4.6-3.6,6.6-5.8c3.3-3.4,6.7-6.9,10.9-7.4c3.9-0.5,6.8,1.9,9.5,4s4.7,3.8,7.3,3.1&#10;&#9;&#9;c1.6-0.3,3-1.6,4.4-3c1.7-1.6,3.6-3.6,6.4-4c2.5-0.3,4.7,0.7,6.7,1.7c0.4,0.2,0.7,0.4,1.1,0.6c2.6,1.1,5.4,1.7,8.2,1.7L183.8,213.8&#10;&#9;&#9;z"/>
	<path class="st4_adventure-1-30" d="M99.1,293.9c-5.3,2.3-11.4,2.3-16.7,0c-3.2-1.5-6.3-4-9.7-3.7c-5.8,0.5-8.7,8.2-14.3,9.2&#10;&#9;&#9;c-4.9,0.9-8.3-3.1-12-7.1L72.1,252L99.1,293.9z"/>
	<path class="st1_adventure-1-30" d="M56.8,301.1c-4.6,0-8-3.6-11.2-7.2l-0.6-0.6c-0.5-0.5-0.6-1.3-0.2-1.9l25.9-40.3c0.5-0.7,1.5-0.9,2.2-0.4&#10;&#9;&#9;c0,0,0,0,0.1,0c0.1,0.1,0.2,0.2,0.3,0.3l27,41.9c0.3,0.4,0.3,0.9,0.2,1.3c-0.2,0.4-0.5,0.8-0.9,1c-6.2,2.5-12.5,2.5-18-0.1&#10;&#9;&#9;c-0.8-0.4-1.7-0.9-2.6-1.3c-2.2-1.2-4.3-2.4-6.3-2.2c-2.4,0.2-4.4,2.1-6.4,4.2c-2.2,2.1-4.5,4.5-7.8,5&#10;&#9;&#9;C58,301,57.4,301.1,56.8,301.1z M48.2,292.1c3.2,3.5,6.1,6.4,9.8,5.8c2.3-0.4,4.1-2.2,6.1-4.2c2.4-2.3,4.9-4.8,8.4-5&#10;&#9;&#9;c3-0.2,5.7,1.1,8.2,2.5c0.8,0.4,1.6,0.9,2.3,1.2c4.3,2,9.2,2.2,13.7,0.7l-24.5-38.2L48.2,292.1z"/>
</g>
<g id="cloud_adventure-1-30">
	<path class="st4_adventure-1-30" d="M127.8,187.3c-11.2,0-29.4,0-48.3,0c-18.5,0-37.7,0.1-51.8,0.1v-29.7c0.8-3,2.9-5.4,5.8-6.4&#10;&#9;&#9;c4.2-1.5,8.5-0.1,13.1,4.2l0.1,0.1c0.8,0.7,2,0.6,2.7-0.2c0,0,0,0,0,0c4.2-4.8,10.1-7.8,16.4-8.4c4.3-0.4,10.3,1.7,13.1,8.7&#10;&#9;&#9;c1,3,1.7,6.1,2,9.3c0.1,0.9,0.3,1.8,0.4,2.7c0.1,0.9,0.9,1.6,1.8,1.6c1-0.1,1.8-0.9,1.9-1.9c1.5-1.6,10.9-3.4,13.3-3.5&#10;&#9;&#9;c4.6-0.1,7.2,0.6,10.4,5.8c1.9,3.1,2.7,6.7,2.3,10.3c-0.2,0.9,0.3,1.8,1.2,2.1C114.2,182.7,121.3,185.1,127.8,187.3z"/>
	<rect x="23.9" y="151.9" class="st1_adventure-1-30" width="3.8" height="39.3"/>
	<path class="st1_adventure-1-30" d="M476.3,226.2c-0.5-0.5-1.2-0.6-1.9-0.4l-1.1,0.4h0c-2.6,0.9-5.1,2.1-7.5,3.6c-8.4,5.3-14.7,13.4-17.7,22.9&#10;&#9;&#9;c-6.6-1.4-13.5,0.3-18.8,4.5c-3.2,2.6-6.2,7-5.1,11.7l0.1,0.4c0,0.2,0.1,0.3,0.1,0.5l-0.3,0.1c-1.6,0.7-3.3,1.5-4.9,2.2l-1.2,0.5&#10;&#9;&#9;c-0.7,0.3-1.1,1-1.1,1.7c0,1,0.9,1.9,1.9,1.9c17-0.1,34.3-0.7,52.8-1.8h3.5c0.5-0.1,1-0.3,1.3-0.7h0.5v-47.5H476.3z M473.2,270.6&#10;&#9;&#9;h-1.8c-15.5,1-30,1.5-44.2,1.8l0.6-0.9c0.4-1,0.5-2.1,0.1-3.1l-0.1-0.3c-0.7-3,1.5-6.1,3.8-8c4.8-3.8,11.2-5.1,17.1-3.3&#10;&#9;&#9;c0.5,0.2,1,0.2,1.5-0.1c0.4-0.3,0.8-0.7,0.9-1.2c2.6-9.3,8.5-17.3,16.6-22.5c1.8-1.1,3.6-2,5.5-2.7V270.6z"/>
	<path class="st4_adventure-1-30" d="M473.2,230.3v40.3h-1.8c-15.5,1-30,1.5-44.2,1.8l0.6-0.9c0.4-1,0.5-2.1,0.1-3.1l-0.1-0.3c-0.7-3,1.5-6.1,3.8-8&#10;&#9;&#9;c4.8-3.8,11.2-5.1,17.1-3.3c0.5,0.2,1,0.2,1.5-0.1c0.4-0.3,0.8-0.7,0.9-1.2c2.6-9.3,8.5-17.3,16.6-22.5&#10;&#9;&#9;C469.5,231.9,471.3,231,473.2,230.3z"/>
</g>
<g id="baloon_adventure-1-30">
	<g id="air-balloon_adventure-1-30">
		<path class="st5_adventure-1-30" d="M300.2,313.4h98.1c0,0,75-92.9,75-152.1c0-81.8-60.6-120-123.9-120s-123.9,38.2-123.9,120&#10;&#9;&#9;&#9;C225.2,220.5,300.2,313.4,300.2,313.4z"/>
		<path class="st1_adventure-1-30" d="M398.3,314.9h-98.1c-0.5,0-0.9-0.2-1.2-0.6c-13.6-17.3-26.1-35.3-37.6-54c-25-40.9-37.6-74.2-37.5-99&#10;&#9;&#9;&#9;c0-83.9,63-121.5,125.4-121.5s125.4,37.6,125.4,121.5c0,24.8-12.7,58.1-37.7,99c-11.5,18.7-24.1,36.7-37.6,54&#10;&#9;&#9;&#9;C399.2,314.7,398.8,314.9,398.3,314.9z M301,311.9h96.6c6.2-7.8,74.2-95,74.2-150.6c0-37.4-13-68.4-37.7-89.5&#10;&#9;&#9;&#9;c-21.8-18.7-51.9-29-84.7-29s-63,10.3-84.7,29C240,92.9,227,123.9,227,161.3C226.8,216.9,294.8,304.1,301,311.9L301,311.9z"/>
		<path class="st5_adventure-1-30" d="M373.4,312.4h-48.2c-1.8,0-3.5-1.1-4.2-2.7c-1.4-3.7-37-92.6-37-150.9c0-60.8,20.3-122.1,65.2-122.1&#10;&#9;&#9;&#9;s65.4,61.3,65.4,122.1c0,58.3-35.6,147.2-37,150.9C377,311.4,375.3,312.6,373.4,312.4z"/>
		<path class="st1_adventure-1-30" d="M373.8,313.9c-0.2,0-0.4,0-0.5,0h-48.1c-2.4,0-4.6-1.4-5.6-3.6l-0.3-0.8c-8.6-22.1-36.9-98.3-36.9-150.7&#10;&#9;&#9;&#9;c0-61.5,20.6-123.6,66.7-123.6c21.3,0,39,13.5,50.9,39.1c10.3,22,16,52,16,84.5c0,52.4-28.2,128.6-36.9,150.7l-0.3,0.7&#10;&#9;&#9;&#9;C378.2,312.4,376.2,313.8,373.8,313.9z M349.1,38.2c-25.4,0-40.1,20.3-48.1,37.4c-10.1,21.6-15.6,51.1-15.6,83.2&#10;&#9;&#9;&#9;c0,13.1,2.6,62.6,36.6,149.6l0.3,0.8c0.5,1.1,1.6,1.8,2.8,1.8h48.4c1.2,0.1,2.3-0.7,2.6-1.8l0.3-0.8&#10;&#9;&#9;&#9;c34-86.9,36.6-136.5,36.6-149.6c0-32-5.6-61.6-15.7-83.2C389.4,58.5,374.5,38.2,349.1,38.2z"/>
		<path class="st5_adventure-1-30" d="M309.3,400.7h77.3c4,0,7.2,3.2,7.2,7.2v48.2c0,4-3.2,7.2-7.2,7.2h-77.3c-4,0-7.2-3.2-7.2-7.2v-48.2&#10;&#9;&#9;&#9;C302.1,403.9,305.3,400.7,309.3,400.7z"/>
		<path class="st1_adventure-1-30" d="M386.6,464.8h-77.3c-4.8,0-8.7-3.9-8.7-8.7v-48.2c0-4.8,3.9-8.7,8.7-8.7h77.3c4.8,0,8.7,3.9,8.7,8.7v48.2&#10;&#9;&#9;&#9;C395.4,460.9,391.5,464.8,386.6,464.8z M309.3,402.2c-3.2,0-5.7,2.6-5.7,5.7v48.2c0,3.2,2.6,5.7,5.7,5.7h77.3&#10;&#9;&#9;&#9;c3.2,0,5.7-2.6,5.7-5.7v-48.2c0-3.2-2.6-5.7-5.7-5.7l0,0H309.3z"/>
		<path class="st5_adventure-1-30" d="M303.8,400.7h90.4c4.6,0,8.4,0.4,8.4,0.9v5.9c0,0.5-3.8,0.9-8.4,0.9h-90.4c-4.6,0-8.4-0.4-8.4-0.9v-5.9&#10;&#9;&#9;&#9;C295.4,401.1,299.2,400.7,303.8,400.7z"/>
		<path class="st1_adventure-1-30" d="M394.2,409.8h-90.4c-9.9,0-9.9-1.2-9.9-2.4v-5.9c0-1.2,0-2.4,9.9-2.4h90.4c9.9,0,9.9,1.2,9.9,2.4v5.9&#10;&#9;&#9;&#9;C404.2,408.6,404.2,409.8,394.2,409.8z M296.9,406.4c2.3,0.3,4.6,0.4,6.9,0.4h90.4c2.3,0,4.6-0.1,6.9-0.4v-3.9&#10;&#9;&#9;&#9;c-2.3-0.3-4.6-0.4-6.9-0.4h-90.4c-2.3,0-4.6,0.1-6.9,0.4V406.4z M401.9,402.7L401.9,402.7z"/>
		<path class="st1_adventure-1-30" d="M312.3,402c-1.4,0-2.5-1.1-2.5-2.5v-86.1c0-1.4,1.1-2.5,2.5-2.5s2.5,1.1,2.5,2.5v86.1&#10;&#9;&#9;&#9;C314.8,400.9,313.7,402,312.3,402C312.3,402.1,312.3,402.1,312.3,402z"/>
		<path class="st1_adventure-1-30" d="M384.5,400.9c-1.4,0-2.5-1.1-2.5-2.5v-85c0-1.4,1.1-2.5,2.5-2.5s2.5,1.1,2.5,2.5v85&#10;&#9;&#9;&#9;C387,399.8,385.9,400.9,384.5,400.9C384.5,400.9,384.5,400.9,384.5,400.9z"/>
	</g>
</g>
<g id="character_adventure-1-30">
	<g id="character-1_adventure-1-30">
		<g id="character-3_adventure-1-30">
			<path class="st6_adventure-1-30" d="M334.2,247.4c-1.5,0.6-2.8,1.5-4,2.6c-2.4,2.3-3.8,5.4-5.1,8.5c-3.9-2.6-8.9-2.6-12.8,0&#10;&#9;&#9;&#9;&#9;c-3.8,2.6-5.9,7.1-5.6,11.7c0.4,4.6,2.9,8.8,6.8,11.3c-5.8,1.8-9.1,8.1-7.3,13.9c0.2,0.6,0.4,1.2,0.8,1.8c1.6,3,4.4,5.1,6.8,7.5&#10;&#9;&#9;&#9;&#9;s4,5.6,5.7,8.4c5.2,8.5,11.5,14.7,20.9,18.5c10.6,4.3,27.7,7.6,37.5,0.8c2.8-1.9,5.6-4,7.5-6.8c2.1-3.2,2.8-7.2,3.5-11&#10;&#9;&#9;&#9;&#9;c0.9-4.6,2-9.1,3.3-13.6c0.3-1.2,0.8-2.3,1.5-3.3c1.2-1.6,3.2-2.3,4.9-3.4c4.6-3.1,6.2-9.6,4.2-14.8s-7.1-8.8-12.6-9.8&#10;&#9;&#9;&#9;&#9;c1.2-3.4,0.2-7.1-2.4-9.5c-2.5-2.3-5.9-3.5-9.4-3.2c-1.1,0.1-9.4,0.9-9.3,2.4c0-3-1-6-2.8-8.4c-1.9-2.4-4.8-3.8-7.8-3.8&#10;&#9;&#9;&#9;&#9;c-3.1,0.1-5.8,2.1-6.7,5.1c-1.1-3.9-5.7-5.9-9.8-6.1C339.4,246,336.7,246.4,334.2,247.4z"/>
			<path class="st1_adventure-1-30" d="M362.9,337.8c-7.9-0.2-15.8-1.8-23.2-4.8c-8.9-3.6-15.8-9.7-21.6-19.1l-0.9-1.4c-1.3-2.4-2.9-4.6-4.6-6.7&#10;&#9;&#9;&#9;&#9;c-0.6-0.7-1.3-1.3-2.1-2c-2-1.7-3.6-3.6-4.9-5.9c-3.2-6-1-13.5,4.9-16.8c-3.1-2.8-5-6.7-5.4-10.8c-0.4-5.2,2-10.2,6.3-13.1&#10;&#9;&#9;&#9;&#9;c3.9-2.5,8.8-2.9,13-0.9c1.1-2.8,2.7-5.3,4.7-7.5c1.3-1.2,2.8-2.2,4.5-2.9l0,0c2.7-1,5.5-1.5,8.4-1.3c3.3,0.2,7.4,1.5,9.7,4.4&#10;&#9;&#9;&#9;&#9;c1.6-2,4-3.2,6.6-3.4c3.5-0.1,6.9,1.5,9.1,4.3c1.5,2,2.5,4.3,2.9,6.8c2.6-0.7,5.2-1.2,7.9-1.3c3.9-0.3,7.7,1,10.6,3.6&#10;&#9;&#9;&#9;&#9;c2.6,2.4,3.8,6,3.2,9.5c5.4,1.4,9.9,5.2,12.1,10.3c2.4,6,0.3,13.3-4.8,16.6c-0.6,0.4-1.2,0.7-1.8,1c-1.1,0.5-2,1.2-2.8,2&#10;&#9;&#9;&#9;&#9;c-0.6,0.9-1,1.8-1.2,2.8c-1.3,4.4-2.4,8.9-3.3,13.4l-0.2,0.8c-0.7,3.7-1.4,7.5-3.6,10.7s-5.2,5.3-7.9,7.2&#10;&#9;&#9;&#9;&#9;C374.4,336.6,368.8,337.8,362.9,337.8z M318.8,258c-2,0-4,0.6-5.6,1.6c-3.4,2.4-5.3,6.3-5,10.4c0.4,4.1,2.6,7.9,6.1,10.1&#10;&#9;&#9;&#9;&#9;c0.7,0.5,0.9,1.4,0.4,2.1c-0.2,0.3-0.5,0.5-0.8,0.6c-5.1,1.6-7.9,6.9-6.3,12c0.2,0.6,0.4,1.1,0.7,1.6c1.2,1.9,2.6,3.6,4.3,5.1&#10;&#9;&#9;&#9;&#9;c0.7,0.7,1.5,1.4,2.2,2.1c1.9,2.2,3.6,4.6,5,7.2c0.3,0.5,0.6,1,0.9,1.4c5.5,9,11.7,14.5,20.1,17.9c11.8,4.8,27.6,6.9,36.1,1&#10;&#9;&#9;&#9;&#9;c2.6-1.8,5.4-3.7,7.1-6.4s2.5-6.2,3.1-9.6l0.2-0.8c0.9-4.6,2-9.2,3.3-13.7c0.3-1.4,0.9-2.7,1.7-3.8c1-1.2,2.3-2.1,3.7-2.8&#10;&#9;&#9;&#9;&#9;c0.5-0.3,1.1-0.6,1.5-0.9c3.9-2.6,5.5-8.3,3.6-13c-1.7-4.4-6.2-7.9-11.5-8.9c-0.4-0.1-0.8-0.4-1-0.8c-0.2-0.4-0.2-0.9-0.1-1.3&#10;&#9;&#9;&#9;&#9;c0.9-2.8,0.2-5.9-2-7.9c-2.2-2-5.2-3-8.2-2.8c-4.1,0.4-7.2,1-8.1,1.5c-0.2,0.5-0.8,0.9-1.4,0.9l0,0c-0.8,0-1.5-0.7-1.5-1.5l0,0&#10;&#9;&#9;&#9;&#9;c0-2.7-0.9-5.3-2.5-7.5c-1.6-2-4-3.2-6.6-3.2c-2.4,0.1-4.6,1.7-5.4,4c-0.2,0.6-0.8,1.1-1.4,1.1l0,0c-0.7,0-1.3-0.4-1.4-1.1&#10;&#9;&#9;&#9;&#9;c-0.9-3.2-4.9-4.8-8.4-5.1c-2.4-0.2-4.8,0.2-7.1,1.1c-1.3,0.5-2.5,1.3-3.6,2.2c-2.2,2.1-3.5,5.2-4.7,8c-0.3,0.8-1.2,1.1-1.9,0.8&#10;&#9;&#9;&#9;&#9;c-0.1,0-0.2-0.1-0.3-0.2C322.7,258.6,320.7,258,318.8,258z"/>
			<path class="st1_adventure-1-30" d="M323.2,264L323.2,264L323.2,264z"/>
			<path class="st7_adventure-1-30" d="M302.1,358.7l-2.5-5.1c1.6-4.5,2.8-9.2,3.5-14c0.7-6.5-3.2-6.4-4-3.5c-0.5,2.3-1.3,4.5-2.3,6.6&#10;&#9;&#9;&#9;&#9;c-0.2-4-3.8-12.6-6.1-12.8c-1-0.1-10-2.1-10.3,6.6c-0.2,5.9,4,17.4,4.4,18.4l7.9,16.3c4.1-2.2,8.2-4.4,12.4-6.3L302.1,358.7z"/>
			<path class="st1_adventure-1-30" d="M292.7,372.6c-0.2,0-0.3,0-0.5-0.1c-0.4-0.1-0.7-0.4-0.9-0.7c-6.1-12.8-7.5-15.6-7.9-16.3l0,0&#10;&#9;&#9;&#9;&#9;c-0.4-0.8-4.8-12.6-4.6-19c-0.1-2.4,0.9-4.7,2.7-6.3c3-2.5,7.5-1.9,8.9-1.8h0.3c2.5,0.2,5.1,4.9,6.3,9.2c0.2-0.5,0.4-1.2,0.6-1.9&#10;&#9;&#9;&#9;&#9;c0.5-2,2.3-3.2,4-2.9c0.9,0.2,3.6,1.2,2.9,6.9c-0.7,4.7-1.8,9.3-3.3,13.8l5.1,10.6c0.1,0.4,0.2,0.7,0.1,1.1&#10;&#9;&#9;&#9;&#9;c-0.2,0.4-0.4,0.6-0.8,0.8c-4,1.8-7.8,4-11.6,5.9l-0.6,0.4C293.2,372.6,293,372.6,292.7,372.6z M286.1,354.3l7.2,15&#10;&#9;&#9;&#9;&#9;c3.2-1.7,6.4-3.5,9.7-5.1l-4.8-9.8c-0.1-0.4-0.2-0.7-0.1-1.1c1.6-4.4,2.7-9,3.4-13.7c0.3-2.7-0.3-3.7-0.6-3.7s-0.5,0.2-0.6,0.9&#10;&#9;&#9;&#9;&#9;c-0.6,2.4-1.5,4.7-2.5,6.9c-0.3,0.5-1,0.8-1.6,0.7c-0.6-0.2-1.1-0.7-1.1-1.4c-0.1-3.9-3.5-10.9-4.8-11.4c-0.1,0-0.3,0-0.4-0.1&#10;&#9;&#9;&#9;&#9;c-1.2-0.2-4.6-0.6-6.7,1.1c-1.1,1.1-1.7,2.6-1.7,4.1C281.7,342.1,285.7,353.2,286.1,354.3L286.1,354.3z"/>
			<path class="st1_adventure-1-30" d="M291.9,347.8c0-1.1,0.5-2.2,1.4-2.9c1-0.6,2.1-0.8,3.2-0.6c0.8,0.2,1.5-0.3,1.7-1.1c0.2-0.8-0.3-1.5-1.1-1.7&#10;&#9;&#9;&#9;&#9;c-1.9-0.3-3.8,0.1-5.5,1.1c-1.5,1.2-2.5,3-2.6,4.9c-0.1,0.8,0.5,1.5,1.2,1.6c0,0,0,0,0,0h0.2C291.2,349,291.8,348.5,291.9,347.8z&#10;&#9;&#9;&#9;&#9;"/>
			<path class="st1_adventure-1-30" d="M265.5,334.2l20.6-6.3c5.1-1.6,10.5,1.3,12.1,6.4l0.6,2c1.6,5.1-1.3,10.5-6.4,12.1l-20.6,6.3&#10;&#9;&#9;&#9;&#9;c-5.1,1.6-10.5-1.3-12.1-6.4l-0.6-2C257.5,341.2,260.4,335.8,265.5,334.2z"/>
			<path class="st1_adventure-1-30" d="M286.2,330.6l14.1-4.3c3.5-1.1,7.2,0.9,8.3,4.4l0.4,1.4c1.1,3.5-0.9,7.2-4.4,8.3l-14.1,4.3&#10;&#9;&#9;&#9;&#9;c-3.5,1.1-7.2-0.9-8.3-4.4l-0.4-1.4C280.7,335.4,282.7,331.7,286.2,330.6z"/>
			<path class="st1_adventure-1-30" d="M244.5,339.4l23.4-7.2c5.8-1.8,11.9,1.5,13.7,7.3l0.7,2.3c1.8,5.8-1.5,11.9-7.3,13.7l-23.4,7.2&#10;&#9;&#9;&#9;&#9;c-5.8,1.8-11.9-1.5-13.7-7.3l-0.7-2.3C235.5,347.3,238.7,341.2,244.5,339.4z"/>
			<path class="st1_adventure-1-30" d="M244.5,339.4l23.4-7.2c5.8-1.8,11.9,1.5,13.7,7.3l0.7,2.3c1.8,5.8-1.5,11.9-7.3,13.7l-23.4,7.2&#10;&#9;&#9;&#9;&#9;c-5.8,1.8-11.9-1.5-13.7-7.3l-0.7-2.3C235.5,347.3,238.7,341.2,244.5,339.4z"/>
			<circle class="st4_adventure-1-30" cx="249" cy="350.5" r="8.9"/>
			<circle class="st4_adventure-1-30" cx="268.4" cy="344.8" r="8.9"/>
			<path class="st0_adventure-1-30 targetColor" d="M287.7,366.9c8.8,24.2,14.3,26.5,16.7,27.5c1.3,0.6,2.6,0.9,4,0.9c5.1,0,10.3-4,21.5-11.6v16.2h52.7v-32.6&#10;&#9;&#9;&#9;&#9;c0-11.6-8.6-21-19.3-21h-18.3c-2.7,0-12.2,2.1-16.2,5.2s-13.5,16.8-18.5,22c-2-4.1-6.3-15.4-6.3-15.4L287.7,366.9z" style="fill: rgb(104, 225, 253);"/>
			<path class="st1_adventure-1-30" d="M382.7,401.1H330c-0.8,0-1.4-0.6-1.4-1.4c0,0,0,0,0,0v-13.5c-0.6,0.4-1,0.7-1.5,1c-8.8,6-13.6,9.4-18.5,9.4&#10;&#9;&#9;&#9;&#9;c-1.6,0-3.1-0.3-4.6-1c-2.8-1.2-8.6-3.6-17.5-28.3c-0.3-0.7,0-1.4,0.6-1.8l16.2-8.9c0.4-0.2,0.8-0.2,1.2-0.1&#10;&#9;&#9;&#9;&#9;c0.4,0.2,0.7,0.4,0.9,0.8c0,0.1,3.2,8.6,5.4,13.4c2-2.3,4.5-5.5,6.9-8.5c4.1-5.2,7.9-10.1,10.3-12c4.4-3.4,14.2-5.5,17.1-5.5&#10;&#9;&#9;&#9;&#9;h18.4c11.4,0,20.7,10.1,20.7,22.4v32.6C384.1,400.5,383.5,401.1,382.7,401.1z M331.5,398.3h49.8v-31.1c0-10.8-8-19.6-17.8-19.6&#10;&#9;&#9;&#9;&#9;h-18.4c-2.7,0-11.7,2.1-15.4,4.9c-2.1,1.7-6,6.7-9.8,11.5c-2.7,3.6-5.5,7-8.6,10.3c-0.6,0.6-1.5,0.6-2.1,0&#10;&#9;&#9;&#9;&#9;c-0.1-0.1-0.2-0.3-0.3-0.4c-1.6-3.2-4.5-10.8-5.8-14l-13.7,7.5c8.3,22.5,13.5,24.7,15.5,25.5c1.1,0.5,2.3,0.7,3.5,0.7&#10;&#9;&#9;&#9;&#9;c4,0,8.6-3.2,17-8.8c1.2-0.8,2.5-1.7,3.8-2.5c0.6-0.4,1.5-0.3,2,0.4c0,0,0,0,0,0c0.2,0.2,0.2,0.5,0.2,0.8L331.5,398.3z"/>
			<polyline class="st3_adventure-1-30" points="345.3,348.3 350.4,387.8 355.8,348.3 &#9;&#9;&#9;"/>
			<path class="st1_adventure-1-30" d="M351.8,388l5.5-39.5c0-0.7-0.5-1.3-1.2-1.5c-0.8-0.2-1.5,0.3-1.7,1.1c0,0,0,0,0,0l-4,28.8l-3.6-28.8&#10;&#9;&#9;&#9;&#9;c-0.1-0.8-0.8-1.4-1.6-1.3c-0.8,0.1-1.4,0.8-1.3,1.6l5.2,39.5c0.1,0.7,0.7,1.3,1.4,1.3l0,0C351.1,389.2,351.7,388.7,351.8,388z"/>
			<path class="st7_adventure-1-30" d="M355.8,350.3v-8.1h-10.5v8.1c0,1.4,1.1,2.4,2.5,2.5h5.6C354.7,352.7,355.8,351.6,355.8,350.3z"/>
			<path class="st1_adventure-1-30" d="M351.4,354.2h-1.6c-3.3,0-5.9-2.6-5.9-5.9c0,0,0,0,0,0v-6.1c0-0.8,0.6-1.4,1.4-1.4h10.5&#10;&#9;&#9;&#9;&#9;c0.8,0,1.4,0.6,1.4,1.4c0,0,0,0,0,0v6.1C357.3,351.5,354.7,354.1,351.4,354.2C351.4,354.2,351.4,354.2,351.4,354.2z M346.7,343.6&#10;&#9;&#9;&#9;&#9;v4.7c0,1.7,1.3,3,3,3h1.6c1.7,0,3-1.3,3-3v-4.7H346.7z"/>
			<path class="st7_adventure-1-30" d="M370.5,314.8c0,4.9,4.6,8.8,10.2,8.8s10.2-3.9,10.2-8.8s-4.6-8.8-10.2-8.8S370.5,309.9,370.5,314.8z"/>
			<path class="st1_adventure-1-30" d="M380.7,325.1c-6.4,0-11.6-4.6-11.6-10.3s5.2-10.3,11.6-10.3s11.7,4.6,11.7,10.3S387.2,325.1,380.7,325.1z&#10;&#9;&#9;&#9;&#9; M380.7,307.4c-4.8,0-8.8,3.3-8.8,7.4s4,7.4,8.8,7.4s8.8-3.3,8.8-7.4S385.6,307.4,380.7,307.4L380.7,307.4z"/>
			<ellipse class="st7_adventure-1-30" cx="320.9" cy="314.8" rx="10.2" ry="8.8"/>
			<path class="st1_adventure-1-30" d="M320.9,325.1c-6.4,0-11.6-4.6-11.6-10.3s5.2-10.3,11.6-10.3s11.6,4.6,11.6,10.3S327.4,325.1,320.9,325.1z&#10;&#9;&#9;&#9;&#9; M320.9,307.4c-4.8,0-8.8,3.3-8.8,7.4s4,7.4,8.8,7.4s8.9-3.3,8.9-7.4S325.8,307.4,320.9,307.4L320.9,307.4z"/>
			<path class="st7_adventure-1-30" d="M325.7,285c3.4,3-5.8,5.1-5.9,5.2c-1.1,1.5-0.2,7-0.2,8.8v13.6c0.3,17.1,14.4,30.7,31.5,30.3&#10;&#9;&#9;&#9;&#9;c16.6-0.3,30-13.7,30.3-30.3c0-6.5-0.8-13-4-18.9c-2.8,0.5-5.5-1.3-7.1-3.6s-2-5.2-2.4-8c-3.4,3.7-10.7,2.3-12.4-2.5&#10;&#9;&#9;&#9;&#9;c-1.5,3.2-5.4,4.9-9,4.7s-6.9-2.1-9.7-4.5c0,2.7-1.5,5.1-3.9,6.2c-0.5,0.2-1,0.4-1.6,0.5C329.4,286.9,327.3,286.3,325.7,285z"/>
			<path class="st1_adventure-1-30" d="M350.6,345c-17.9,0-32.3-14.5-32.3-32.4V299c0-0.5-0.1-1.1-0.2-1.9c-0.3-3.5-0.5-6.3,0.6-7.8&#10;&#9;&#9;&#9;&#9;c0.3-0.3,0.7-0.5,1.1-0.6c4.3-1.3,5.1-2.2,5.1-2.4l-0.2-0.2l0,0c-0.6-0.5-0.7-1.4-0.2-2.1c0.5-0.6,1.4-0.7,2.1-0.2l0,0&#10;&#9;&#9;&#9;&#9;c1.3,1,2.9,1.5,4.5,1.2l0,0c0.4-0.1,0.8-0.2,1.2-0.4c1.9-0.9,3.1-2.8,3.1-4.9c0-0.8,0.6-1.4,1.4-1.5c0.3,0,0.7,0.1,1,0.3&#10;&#9;&#9;&#9;&#9;c3,2.5,6,4,8.9,4.2c3.1,0.3,6.1-1.2,7.7-3.9c0.3-0.5,0.8-0.8,1.4-0.8c0.6,0,1.1,0.4,1.3,1c1.6,3.2,5.4,4.5,8.6,2.9&#10;&#9;&#9;&#9;&#9;c0.5-0.3,1.1-0.6,1.5-1c0.4-0.4,1-0.5,1.5-0.4c0.5,0.2,0.9,0.6,1,1.2c0.4,2.8,0.9,5.4,2.2,7.5c1.1,1.8,3.3,3.4,5.5,3&#10;&#9;&#9;&#9;&#9;c0.6-0.1,1.2,0.2,1.5,0.7c3.7,6.6,4.2,13.9,4.2,19.5C383,330.3,368.5,344.9,350.6,345z M320.9,291.4c-0.3,1.2,0,4.2,0.1,5.4&#10;&#9;&#9;&#9;&#9;c0.1,0.9,0.2,1.7,0.2,2.2v13.6c0,16.3,13.2,29.5,29.5,29.5s29.5-13.2,29.5-29.5c0-7.4-1-12.8-3.4-17.4h-0.1&#10;&#9;&#9;&#9;&#9;c-3-0.2-5.7-1.8-7.3-4.4c-1.1-1.9-1.9-4-2.2-6.2c-3.9,1.9-8.6,1-11.5-2.3c-2.4,2.5-5.7,3.7-9.1,3.4c-3.1-0.3-6-1.5-8.5-3.3&#10;&#9;&#9;&#9;&#9;c-0.7,2.2-2.3,3.9-4.4,4.9c-0.6,0.3-1.2,0.5-1.9,0.6l0,0c-1.4,0.3-2.8,0.1-4.1-0.3C326.8,289.1,324.7,290.3,320.9,291.4&#10;&#9;&#9;&#9;&#9;L320.9,291.4z"/>
			<path class="st1_adventure-1-30" d="M354.3,308.9c0,1.6,1.3,2.9,2.9,2.9c1.6,0,2.9-1.3,2.9-2.9c0-1.6-1.3-2.9-2.9-2.9l0,0&#10;&#9;&#9;&#9;&#9;C355.6,306,354.3,307.3,354.3,308.9z"/>
			<circle class="st1_adventure-1-30" cx="331.6" cy="308.6" r="2.9"/>
			<path class="st1_adventure-1-30" d="M347.4,318.8h0.6c0.8-0.1,1.3-0.8,1.3-1.6c0,0,0,0,0,0c-0.1-0.7-0.7-1.3-1.4-1.3c-1.3,0.1-2.5-0.1-3.7-0.4&#10;&#9;&#9;&#9;&#9;c0.8-2.1,1.8-4.1,3.2-6c0.5-0.6,0.4-1.4-0.2-1.9c0,0-0.1-0.1-0.2-0.1c-0.6-0.4-1.5-0.3-2,0.3c0,0,0,0,0,0.1&#10;&#9;&#9;&#9;&#9;c-1.7,2.4-4.3,6.6-3.6,8.7c0.2,0.6,0.7,1.1,1.3,1.3C344.1,318.7,345.7,318.9,347.4,318.8z"/>
			<path class="st1_adventure-1-30" d="M373,299.8c1.6-0.1,2.8-1.4,2.7-3c-0.1-1.4-1.2-2.6-2.7-2.7h-14c-1.6-0.1-2.9,1.1-3,2.7s1.1,2.9,2.7,3&#10;&#9;&#9;&#9;&#9;c0.1,0,0.2,0,0.3,0H373z"/>
			<path class="st1_adventure-1-30" d="M339,300.1L339,300.1c1.6,0.1,2.9-1.2,3-2.8c0.1-1.6-1.2-2.9-2.7-2.9c0,0,0,0,0,0l-14-0.7&#10;&#9;&#9;&#9;&#9;c-1.6-0.1-2.9,1.1-3,2.7s1.1,2.9,2.7,3l14,0.7L339,300.1z"/>
			<path class="st0_adventure-1-30 targetColor" d="M328.9,368.6c-2.2,9.3,1.2,15,1.2,15" style="fill: rgb(104, 225, 253);"/>
			<path class="st1_adventure-1-30" d="M330.8,384.8c0.7-0.4,0.9-1.3,0.5-2c0-0.1-3.1-5.3-1-13.9l0,0c0.2-0.8-0.2-1.5-1-1.8c-0.8-0.2-1.5,0.2-1.8,1&#10;&#9;&#9;&#9;&#9;c0,0,0,0,0,0.1c-2.4,9.7,1.2,15.8,1.4,16c0.2,0.4,0.6,0.7,1.1,0.8C330.3,385,330.6,384.9,330.8,384.8z"/>
			<path class="st1_adventure-1-30" d="M358.9,325c0.6-0.5,0.7-1.4,0.2-2.1s-1.4-0.7-2.1-0.2c-0.5,0.4-11.3,9-20.6,0.1c0,0,0-0.1-0.1-0.1&#10;&#9;&#9;&#9;&#9;c-0.6-0.6-1.5-0.5-2.1,0c-0.6,0.6-0.5,1.5,0,2.1c0,0,0.1,0.1,0.1,0.1c3,3,7.1,4.7,11.3,4.8C352.9,329.7,358.7,325.1,358.9,325z"/>
		</g>
	</g>
	<path class="st1_adventure-1-30" d="M373.8,399.9c-0.8,0-1.4-0.6-1.5-1.3l-3-28.5c-0.1-0.8,0.5-1.6,1.3-1.7s1.6,0.5,1.7,1.3l3,28.4&#10;&#9;&#9;c0.1,0.8-0.5,1.6-1.3,1.7H373.8z"/>
</g>
</svg>