<svg id="_0098_open_map" xmlns="http://www.w3.org/2000/svg" xmlns:xlink="http://www.w3.org/1999/xlink" viewBox="0 0 500 500" data-imageid="map-1-86" imageName="Map 1" class="illustrations_image" style="width: 188px;"><defs><style>.cls-1_map-1-86{fill:url(#linear-gradient);}.cls-1_map-1-86,.cls-2_map-1-86,.cls-3_map-1-86,.cls-4_map-1-86,.cls-5_map-1-86,.cls-6_map-1-86,.cls-7_map-1-86,.cls-8_map-1-86,.cls-9_map-1-86,.cls-10_map-1-86{stroke-width:0px;}.cls-2_map-1-86{isolation:isolate;opacity:.18;}.cls-2_map-1-86,.cls-10_map-1-86{fill:#68e3fd;}.cls-11_map-1-86,.cls-12_map-1-86,.cls-13_map-1-86,.cls-14_map-1-86{fill:none;stroke:#fff;stroke-miterlimit:10;}.cls-11_map-1-86,.cls-13_map-1-86,.cls-14_map-1-86{stroke-width:.73px;}.cls-12_map-1-86{stroke-width:2.92px;}.cls-3_map-1-86{fill:url(#linear-gradient-4-map-1-86);}.cls-4_map-1-86{fill:url(#linear-gradient-2-map-1-86);}.cls-5_map-1-86{fill:url(#linear-gradient-3-map-1-86);}.cls-6_map-1-86{fill:url(#linear-gradient-5-map-1-86);}.cls-13_map-1-86{stroke-dasharray:0 0 8.75 8.75;}.cls-7_map-1-86{fill:#231f20;}.cls-8_map-1-86{fill:#fff;}.cls-9_map-1-86{fill:#ffaa71;}.cls-14_map-1-86{stroke-dasharray:0 0 8.52 8.52;}</style><linearGradient id="linear-gradient-map-1-86" x1="706.88" y1="2652.21" x2="724.13" y2="2433.92" gradientTransform="translate(-506.4 2841.02) scale(1 -1)" gradientUnits="userSpaceOnUse"><stop offset="0" stop-color="#231f20" stop-opacity="0"/><stop offset="1" stop-color="#231f20"/></linearGradient><linearGradient id="linear-gradient-2-map-1-86" x1="699.04" y1="2778.16" x2="768.8" y2="2506.52" gradientTransform="translate(-471 2849.9) scale(1 -1)" xlink:href="#linear-gradient-map-1-86"/><linearGradient id="linear-gradient-3-map-1-86" x1="1021.72" y1="2984.44" x2="466.95" y2="2318.06" gradientTransform="translate(-506.4 2841.02) scale(1 -1)" gradientUnits="userSpaceOnUse"><stop offset=".02" stop-color="#fff" stop-opacity="0"/><stop offset=".58" stop-color="#fff" stop-opacity=".39"/><stop offset=".68" stop-color="#fff" stop-opacity=".68"/><stop offset="1" stop-color="#fff"/></linearGradient><linearGradient id="linear-gradient-4-map-1-86" x1="432.05" y1="2712.33" x2="1239.59" y2="2402.11" xlink:href="#linear-gradient-map-1-86"/><linearGradient id="linear-gradient-5-map-1-86" x1="893.35" y1="2457.03" x2="837.95" y2="2472.41" xlink:href="#linear-gradient-map-1-86"/></defs><path id="background_map-1-86" class="cls-2_map-1-86" d="M110.05,203.93c-8.36,7.23-17.81,13.13-26,20.55-37.81,34.27-40.69,92.71-6.42,130.52,7.99,8.81,17.6,16,28.31,21.17,17.58,8.49,37.37,11.2,55.75,17.82,24.49,8.85,46.62,24.64,72.31,28.88,30.64,5.06,62.1-7.5,86.34-26.93,24.23-19.43,42.41-45.2,60.02-70.79,15-21.78,29.96-43.93,39.59-68.56,9.63-24.64,13.64-52.31,6.17-77.68-7.09-24.02-24.02-44.32-43.76-59.75-19.75-15.43-42.5-26.55-65.04-37.62-16.71-8.19-33.99-16.53-52.64-17.32-32.41-1.34-75.33,23.71-98.28,45.75-11.67,11.2-14.47,29.87-21.14,44.24-8.57,18.56-19.62,36.19-35.2,49.7Z"/><g id="map_map-1-86"><polygon class="cls-10_map-1-86" points="148.34 331.37 108.21 434.8 262.89 360.51 299.07 260.62 148.34 331.37"/><path class="cls-10_map-1-86" d="M148.34,331.42c-.78-2.35-26.7-67.53-26.7-67.53l150.76-63.6,18.85,64.38-142.91,66.74Z"/><path class="cls-1_map-1-86" d="M148.34,331.42c-.78-2.35-26.7-67.53-26.7-67.53l150.76-63.6,18.85,64.38-142.91,66.74Z"/><polygon class="cls-10_map-1-86" points="167.42 203.78 121.64 263.84 272.41 200.25 313.09 140.18 167.42 203.78"/><polygon class="cls-10_map-1-86" points="162.3 115.47 157.99 75.76 311.64 29.15 312.38 88.34 313.09 140.18 167.42 203.78 162.3 115.47"/><polygon class="cls-4_map-1-86" points="162.3 115.47 157.99 75.76 311.64 29.15 312.38 88.34 313.09 140.18 167.42 203.78 162.3 115.47"/><path class="cls-5_map-1-86" d="M169.12,83.56l8.19,113.87s-41.89,57.78-42.73,60.3,23.45,64.47,23.45,64.47c0,0-33.51,95.5-32.66,92.99s136.52-65.34,136.52-65.34l10.92-80.36-21.78-56.13,52.78-72.89-.87-98.17-133.82,41.26Z"/><path class="cls-3_map-1-86" d="M194.84,214.1c-11.38-16.29-27.06-34.13-21.63-53.26,22.08,17.5,46.98,31.11,73.63,40.24,10.28-12.79-12.31-32.06-4.88-46.67,3.22-6.3,10.94-8.8,17.25-5.58,4.3,2.2,7,6.63,6.99,11.46,10.94-.58,21.04-6.06,27.51-14.9.67,22.11-16.51,40.06-31.11,56.68-1.91,2.17-3.88,4.56-4.16,7.43-.23,2.38.75,4.69,1.64,6.91,18.08,44.61,11.15,94.92,3.93,142.51,0,5.81-35.13,17.05-40.97,7.29-6.43-10.77,1.69-38.18,1.54-50.56-.42-35.79-9-71.98-29.74-101.56Z"/><path class="cls-11_map-1-86" d="M208.74,131.57s.67,1.45,1.68,4.02"/><path class="cls-14_map-1-86" d="M213.32,143.62c5.81,17.92,12.99,51.83-6.19,73.32-27.08,30.34-43.5,27.08-36.92,54.15,4.53,18.67,11.38,39.69,15.17,50.94"/><path class="cls-11_map-1-86" d="M186.8,326.05c.91,2.62,1.45,4.12,1.45,4.12,0,0-1.09,1.26-2.72,3.41"/><path class="cls-13_map-1-86" d="M180.4,340.66c-8.15,12.03-17.36,30,1.26,28.9,27.9-1.64,68.11-31.19,61.55-47.59-6.56-16.41-26.27-25.45-32.87-39.4-6.6-13.96,13.9-8.2,25.43-25.43,11.53-17.23,3.29-23.8-.82-41.85-4.11-18.05,12.31-2.53,20.53-45.14,8.22-42.61-5.75-51.7-16.43-56.62-7.8-3.6,11.62-20.38,22.61-29.14"/><path class="cls-11_map-1-86" d="M265.19,81.68c2.14-1.64,3.48-2.63,3.48-2.63"/><line class="cls-12_map-1-86" x1="268.37" y1="68.38" x2="271.14" y2="88.07"/><line class="cls-12_map-1-86" x1="258.62" y1="77.2" x2="277.51" y2="77.2"/><circle class="cls-8_map-1-86" cx="239.55" cy="272.31" r="3.69"/><circle class="cls-8_map-1-86" cx="201.59" cy="217.53" r="3.69"/></g><g id="character_map-1-86"><path class="cls-8_map-1-86" d="M180.58,133.13c-3.48,1.04-6.7,2.79-9.48,5.13-2.79,2.4-4.25,6.01-3.91,9.68.59,2.49,1.71,4.81,3.3,6.81,16.29,23.92,33.51,48.71,58.83,62.72,8.98,4.96,18.73,8.42,27.54,13.65s16.95,12.7,19.85,22.54c3.79,12.72-1.73,27.47,4.53,39.19.81,1.69,2.06,3.14,3.62,4.2,1.93.99,4.07,1.52,6.24,1.54,15.03,1.26,30.79,2.22,44.58-3.89,2.05-.76,3.87-2.03,5.3-3.69,1.16-1.78,1.92-3.79,2.24-5.89,5.96-27.47,7.13-55.76,3.45-83.63-4.61-34.72-7.58-73.82-25.45-103.95-5.49,9.38-2.72,21.15-.83,31.86,1.4,8.04,2.21,16.17,3.02,24.3.68,6.79,1.26,14.08-2.07,20.04-2.33,4.13-6.32,7.1-10.43,9.42-10.91,6.09-23.51,8.38-35.91,9.94-12.15,1.53-25.07,2.33-36.12-2.97-7.67-3.69-13.72-9.99-19.58-16.16-13.08-13.73-25.72-27.09-38.72-40.83Z"/><path class="cls-9_map-1-86" d="M282.59,151.05c-.64,1.7-1.14,3.46-1.48,5.25-.94,6.5,2.11,12.94,7.74,16.33,1.32.64,2.59,1.39,3.79,2.24,1.93,1.78,3.06,4.26,3.13,6.89.06,2.6-.23,5.19-.85,7.71-.13.63-.15,1.48.44,1.74.18.06.38.09.57.08,5.51-.02,10.91-1.58,15.59-4.5,1.49-.84,2.76-2.01,3.72-3.43,1.48-2.53,1.26-5.56,1.13-8.44-.23-7.58,1.07-15.17.59-22.75-.48-7.58-3.2-15.57-9.49-19.82-2.72-1.77-5.85-2.81-9.09-3-2.19-.16-6.71-.4-8.49,1.15-.97.86-1.26,3.1-1.68,4.27-.66,1.9-1.31,3.79-1.96,5.69l-3.65,10.59Z"/><path class="cls-7_map-1-86" d="M301.74,113.86c6.69.61,13.68.25,19.81,3.01,9.04,4.07,14.11,14.26,14.69,24.14.57,7.3-1.38,14.57-5.51,20.6-4.24,6.04-11.08,9.72-18.46,9.94-3.62,0-7.77-1.53-8.76-5.06-.41-2.19.04-4.46,1.26-6.32.9-1.63,2.06-3.38,1.69-5.2-.51-1.74-1.99-3.02-3.79-3.26-1.75-.22-3.52-.1-5.22.37.94-4.34,1.8-9.15-.44-12.98-3.17-5.41-11.14-6.45-14.36-11.83-1.26-2.21-1.15-5.79,1.26-6.56.47-.08.92-.25,1.33-.49.73-.66.29-1.83-.11-2.73-.86-1.91-1.91-5.46-1.07-7.58,1.26-3.17,1.64-1.73,4.06-.38,4.17,2.43,8.82,3.91,13.63,4.34Z"/><path class="cls-9_map-1-86" d="M171.69,120.9c-.28-.91-.71-1.76-1.26-2.53-.6-.76-1.58-1.12-2.53-.95-.84.24-1.32,1.12-1.08,1.96.03.1.07.2.12.29-.71-.78-1.36-1.63-1.92-2.53-.57-.93-1.55-1.54-2.64-1.63-1.25.13-2.27,1.05-2.53,2.28-.26,1.2-.26,2.43,0,3.63.59,2.88.8,5.83.63,8.77-.25,2.53-1.07,5.17-.44,7.66.76,3.1,4.44,5.44,7.29,4.02,1.08-.67,2.03-1.53,2.82-2.53,2.53-2.63,5.5-4.02,8.7-5.6-.66-2.01-2.68-4.07-3.79-5.98-1.28-2.2-2.41-4.5-3.36-6.86Z"/><path class="cls-9_map-1-86" d="M318.11,91.25c-.85-2.82-2.67-5.26-5.14-6.86l-.57,3.96c-.02.37-.14.72-.34,1.02-.17.22-.4.38-.66.48-1.26.42-2.59.6-3.92.53-1.34-.05-2.63.54-3.46,1.59-.57,1.21-.44,2.63.33,3.72.52.88,1.24,1.63,2.09,2.2,1.24.62,2.43,1.34,3.55,2.15,1.78,1.64,1.96,4.32,2.44,6.69s1.91,5.06,4.32,5.16c1.38-1.26,1.59-3.3,1.73-5.16.19-2.64,1.26-5.17,1.43-7.76s-1-5.42-1.79-7.71Z"/><path class="cls-7_map-1-86" d="M360.29,430.62c2.15,3.99,1.49,9.1.43,13.53-1.06,4.42-4.54,8.61-9.06,8.91-6.65.44-8.62-8.31-13.3-13.05-16.86-17.12-25.84-31.1-28.29-48.36-1.54-10.96-1.44-22.22-4.58-32.87-2.44-8.25-6.78-15.83-9.29-24.02-3.45-11.23-3.39-23.17-3.31-34.91,8.09-.84,16.15-1.97,24.17-3.38,4.72-.81,19.09-6.32,23.3-4.65,7.32,3.01,4.77,34.93,3.93,43.12-3.72,36.25-3.72,59.03,16,95.68Z"/><path class="cls-6_map-1-86" d="M360.29,430.62c2.15,3.99,1.49,9.1.43,13.53-1.06,4.42-4.54,8.61-9.06,8.91-6.65.44-8.62-8.31-13.3-13.05-16.86-17.12-25.84-31.1-28.29-48.36-1.54-10.96-1.44-22.22-4.58-32.87-2.44-8.25-6.78-15.83-9.29-24.02-3.45-11.23-3.39-23.17-3.31-34.91,8.09-.84,16.15-1.97,24.17-3.38,4.72-.81,19.09-6.32,23.3-4.65,7.32,3.01,4.77,34.93,3.93,43.12-3.72,36.25-3.72,59.03,16,95.68Z"/><path class="cls-7_map-1-86" d="M270.06,466.77c.56-15.17,5.95-15.42,7.94-30.53.94-7.15.66-14.5,2.39-21.49,1.43-5.05,3.42-9.93,5.93-14.54,14.73-29.31,37.56-51.95,44.12-84.1.86-4.22,2.93-22.17,3.21-23.55,0,0-22.29,4.26-26.55,4.15l-19.86-.53c-1.79-.19-3.59.05-5.27.7-1.91,1.13-3.4,2.85-4.25,4.9-5.79,11.5-5.9,24.88-7.82,37.61-3.44,22.87-12.93,44.43-17.09,67.19-1.63,9-2.43,18.13-3.22,27.23-.99,11.38,0,8.85-1.01,20.23-.27,1.5-.1,3.05.48,4.46.76,1.15,1.8,2.08,3.03,2.71,5.69,3.6,11.71,8.01,17.98,5.57Z"/><path class="cls-7_map-1-86" d="M227.54,469.21c-.13,3.06,3.24,4.93,6.13,5.93,8.88,3.09,18.1,5.08,27.46,5.93.67.09,1.35.09,2.02,0,2.89-.59,3.88-4.17,4.3-7.1l.68-4.87c.16-.58.05-1.19-.29-1.68-.44-.46-1.19-.35-1.83-.28-7.58.88-12.24-6.99-19.62-6.55-4.39.2-18.58,2.87-18.85,8.62Z"/><path class="cls-7_map-1-86" d="M331.76,451.51c-1.26.38-2.65.99-2.98,2.25-.12.89.11,1.8.64,2.53,2.28,3.32,5.78,5.62,9.73,6.4,3.92.74,7.93.96,11.91.64l5.32-.16c.88.04,1.75-.15,2.53-.57.99-.89,1.55-2.17,1.52-3.5.25-3.1.2-6.22-.16-9.3-.06-.48-.19-1.04-.63-1.26s-1.11.29-1.55.7c-3.65,3.3-8.68.56-12.78.08-4.36-.43-9.46.95-13.54,2.21Z"/></g></svg>